<mxfile host="app.diagrams.net" modified="2024-04-20T18:02:36.554Z" agent="Mozilla/5.0 (Macintosh; Intel Mac OS X 10_15_7) AppleWebKit/537.36 (KHTML, like Gecko) Chrome/124.0.0.0 Safari/537.36" version="24.2.5" etag="TEWRwLAmnlZcUJYCVNvB" type="github">
  <diagram name="Page-1" id="pXnjt5rbPaOtnro5ler8">
    <mxGraphModel>
      <root>
        <mxCell id="0" />
        <mxCell id="1" parent="0" />
      </root>
    </mxGraphModel>
  </diagram>
</mxfile>
